<svg id="Layer_1" data-name="Layer 1" xmlns="http://www.w3.org/2000/svg" viewBox="0 0 1417.32 1417.32"><defs><style>.cls-1{fill:#ffc543;}</style></defs><path class="cls-1" d="M557,458.89V651q0,4-4,4H525.55q-4,0-4-4V560.67l-18.87,73.77c-.39,1-.86,1.43-1.43,1.43s-1.05-.47-1.43-1.43L481,560.67V651c0,2.67-1.34,4-4,4H449.5q-4,0-4-4V458.89q0-4,4-4h24.3a4.08,4.08,0,0,1,3,1.29,8.07,8.07,0,0,1,1.86,2.72l22.59,102.36,22.59-102.36a8.07,8.07,0,0,1,1.86-2.72,4.1,4.1,0,0,1,3-1.29H553Q557,454.88,557,458.89Z"/><path class="cls-1" d="M662.79,621a34.82,34.82,0,0,1-2.85,14,36.21,36.21,0,0,1-19.16,19.16,34.73,34.73,0,0,1-14,2.86H615.9a34.7,34.7,0,0,1-14-2.86A36.23,36.23,0,0,1,582.74,635a34.66,34.66,0,0,1-2.86-14V488.91a34.66,34.66,0,0,1,2.86-14,36.35,36.35,0,0,1,7.72-11.44,36.76,36.76,0,0,1,11.43-7.72,34.86,34.86,0,0,1,14-2.86h10.87a34.9,34.9,0,0,1,14,2.86,36.21,36.21,0,0,1,19.16,19.16,34.82,34.82,0,0,1,2.85,14ZM629.34,490.34a6.83,6.83,0,0,0-6.86-6.86h-2.29a6.83,6.83,0,0,0-6.86,6.86V619.57a6.83,6.83,0,0,0,6.86,6.87h2.29a6.83,6.83,0,0,0,6.86-6.87Z"/><path class="cls-1" d="M777.73,458.89,744,651q-.57,4-4.57,4H714.26q-4,0-4.58-4L675.94,458.89c-.38-2.67.76-4,3.44-4h30.88q3.71,0,4.28,4l11.73,121.23h1.14l11.72-121.23q.57-4,4.29-4H774.3Q778.31,454.88,777.73,458.89Z"/><path class="cls-1" d="M827.19,651q0,4-4,4H797.74q-4,0-4-4V458.89q0-4,4-4h25.45q4,0,4,4Z"/><path class="cls-1" d="M923,625.58V651q0,4-4,4h-62q-4,0-4-4V458.89q0-4,4-4h62q4,0,4,4v25.44q0,4-4,4H886.38v41.17h28.3c2.67,0,4,1.34,4,4V559q0,4-4,4h-28.3v58.62H919Q923,621.58,923,625.58Z"/><path class="cls-1" d="M549.29,704.52V896.66q0,4-4,4H517.83q-4,0-4-4V806.31L495,880.08c-.39.95-.86,1.43-1.43,1.43s-1-.48-1.43-1.43l-18.87-73.77v90.35c0,2.67-1.34,4-4,4H441.78q-4,0-4-4V704.52q0-4,4-4h24.3a4.11,4.11,0,0,1,3,1.28,8.16,8.16,0,0,1,1.86,2.72l22.59,102.36,22.59-102.36A8.16,8.16,0,0,1,518,701.8a4.13,4.13,0,0,1,3-1.28h24.3Q549.29,700.52,549.29,704.52Z"/><path class="cls-1" d="M657.94,896.66c.37,2.67-.77,4-3.44,4h-26q-3.71,0-4.29-4l-2.28-30.88H604.18l-2.29,30.88q-.57,4-4.29,4h-26c-2.68,0-3.82-1.34-3.44-4L589.6,704.52q.57-4,4.57-4h37.74q4,0,4.58,4Zm-38.32-62.9-5.43-77.49H611.9l-5.43,77.49Z"/><path class="cls-1" d="M768.3,704.52V896.66q0,4-4,4H746a5.44,5.44,0,0,1-3.29-1.15,5.93,5.93,0,0,1-2.15-2.57l-30.3-94.64v94.35q0,4-4,4H680.81q-4,0-4-4V704.52q0-4,4-4h18.87a5.51,5.51,0,0,1,3.28,1.14,6,6,0,0,1,2.15,2.58L734.85,796v-91.5q0-4,4-4h25.44Q768.3,700.52,768.3,704.52Z"/><path class="cls-1" d="M827.48,896.66q0,4-4,4H798q-4,0-4-4V704.52q0-4,4-4h25.45q4,0,4,4Z"/><path class="cls-1" d="M936.13,896.66q.57,4-3.43,4h-26q-3.72,0-4.29-4l-2.29-30.88H882.37l-2.28,30.88q-.58,4-4.29,4h-26c-2.67,0-3.82-1.34-3.43-4l21.44-192.14q.57-4,4.58-4h37.74c2.67,0,4.19,1.33,4.58,4Zm-38.31-62.9-5.44-77.49h-2.29l-5.43,77.49Z"/></svg>